<svg xmlns:xlink="http://www.w3.org/1999/xlink" width="25" height="26" viewBox="0 0 25 26" fill="none" xmlns="http://www.w3.org/2000/svg"><path fill-rule="evenodd" clip-rule="evenodd" d="M2.22099 2.46716H0V0.967163H3.36191L4.83651 6.28953H24.917L22.1343 20.0392H8.50267C8.20729 20.0392 7.95461 19.9315 7.78105 19.8354C7.59932 19.7347 7.43985 19.6104 7.3161 19.5023C7.18989 19.392 7.0844 19.2841 7.01105 19.2048C6.97391 19.1646 6.94388 19.1305 6.92231 19.1055C6.91151 19.0929 6.90276 19.0826 6.89624 19.0748L6.88812 19.065L6.88535 19.0616L6.88428 19.0603L6.88363 19.0595C6.88353 19.0594 6.88344 19.0593 7.46501 18.5857L6.88363 19.0595L6.7842 18.9374L2.22099 2.46716ZM8.1411 18.217C8.18594 18.264 8.24167 18.3191 8.30297 18.3727C8.38053 18.4404 8.45142 18.492 8.50784 18.5232C8.52156 18.5308 8.53206 18.5359 8.53948 18.5392H20.9075L23.083 7.78953H5.2521L8.1411 18.217Z" fill="black"></path> <path d="M10.251 25.7171C11.3529 25.7171 12.2462 24.7393 12.2462 23.5331C12.2462 22.3268 11.3529 21.349 10.251 21.349C9.14913 21.349 8.25587 22.3268 8.25587 23.5331C8.25587 24.7393 9.14913 25.7171 10.251 25.7171Z" fill="black"></path> <path fill-rule="evenodd" clip-rule="evenodd" d="M10.251 22.0188C9.53966 22.0188 8.90275 22.6617 8.90275 23.5325C8.90275 24.4034 9.53966 25.0463 10.251 25.0463C10.9623 25.0463 11.5992 24.4034 11.5992 23.5325C11.5992 22.6617 10.9623 22.0188 10.251 22.0188ZM8.10275 23.5325C8.10275 22.2895 9.03124 21.2188 10.251 21.2188C11.4707 21.2188 12.3992 22.2895 12.3992 23.5325C12.3992 24.7756 11.4707 25.8463 10.251 25.8463C9.03124 25.8463 8.10275 24.7756 8.10275 23.5325Z" fill="black"></path> <path d="M18.9822 25.7171C20.0841 25.7171 20.9774 24.7393 20.9774 23.5331C20.9774 22.3268 20.0841 21.349 18.9822 21.349C17.8803 21.349 16.987 22.3268 16.987 23.5331C16.987 24.7393 17.8803 25.7171 18.9822 25.7171Z" fill="black"></path> <path fill-rule="evenodd" clip-rule="evenodd" d="M18.9821 22.0188C18.2708 22.0188 17.6339 22.6617 17.6339 23.5325C17.6339 24.4034 18.2708 25.0463 18.9821 25.0463C19.6935 25.0463 20.3304 24.4034 20.3304 23.5325C20.3304 22.6617 19.6935 22.0188 18.9821 22.0188ZM16.8339 23.5325C16.8339 22.2895 17.7624 21.2188 18.9821 21.2188C20.2019 21.2188 21.1304 22.2895 21.1304 23.5325C21.1304 24.7756 20.2019 25.8463 18.9821 25.8463C17.7624 25.8463 16.8339 24.7756 16.8339 23.5325Z" fill="black"></path> <path fill-rule="evenodd" clip-rule="evenodd" d="M11.6946 19.29V7.24915H13.1946V19.29H11.6946Z" fill="black"></path> <path fill-rule="evenodd" clip-rule="evenodd" d="M16.8229 19.29V7.24915H18.3229V19.29H16.8229Z" fill="black"></path> <path fill-rule="evenodd" clip-rule="evenodd" d="M23.1583 11.7258H8.25587V10.2258H23.1583V11.7258Z" fill="black"></path></svg>