<svg xmlns:xlink="http://www.w3.org/1999/xlink" width="26" height="26" viewBox="0 0 26 26" fill="none" xmlns="http://www.w3.org/2000/svg"><path fill-rule="evenodd" clip-rule="evenodd" d="M8.52589 1.65283C4.78367 1.65283 1.75 4.68651 1.75 8.42876C1.75 12.171 4.78367 15.2047 8.52589 15.2047C12.2681 15.2047 15.3018 12.171 15.3018 8.42876C15.3018 4.68651 12.2681 1.65283 8.52589 1.65283ZM0.25 8.42876C0.25 3.85809 3.95524 0.152832 8.52589 0.152832C13.0965 0.152832 16.8018 3.85809 16.8018 8.42876C16.8018 12.9994 13.0965 16.7047 8.52589 16.7047C3.95524 16.7047 0.25 12.9994 0.25 8.42876Z" fill="black"></path> <path fill-rule="evenodd" clip-rule="evenodd" d="M13.4927 13.3068C13.7856 13.0139 14.2604 13.0139 14.5533 13.3068L17.118 15.8715C17.4109 16.1643 17.4109 16.6392 17.118 16.9321C16.8251 17.225 16.3503 17.225 16.0574 16.9321L13.4927 14.3675C13.1998 14.0746 13.1998 13.5997 13.4927 13.3068Z" fill="black"></path> <path fill-rule="evenodd" clip-rule="evenodd" d="M17.6941 16.4327L16.5298 17.5969C16.5076 17.6201 16.4952 17.651 16.4952 17.6831C16.4952 17.7153 16.5076 17.7461 16.5298 17.7693L22.8787 24.1182C22.9019 24.1404 22.9328 24.1528 22.9649 24.1528C22.9971 24.1528 23.0279 24.1404 23.0511 24.1182L24.2152 22.9542C24.2375 22.931 24.25 22.9 24.25 22.8678C24.25 22.8357 24.2376 22.8048 24.2154 22.7816L17.8665 16.4327C17.8433 16.4105 17.8124 16.3981 17.7803 16.3981C17.7481 16.3981 17.7173 16.4105 17.6941 16.4327ZM24.7483 23.4817L25.2824 24.0082C25.5818 23.7045 25.7498 23.2951 25.75 22.8686C25.7502 22.4421 25.5827 22.0326 25.2836 21.7285L18.9239 15.3688L18.9195 15.3644C18.6156 15.0656 18.2065 14.8981 17.7803 14.8981C17.354 14.8981 16.9449 15.0656 16.641 15.3644L15.4659 16.5395L15.4616 16.5439C15.1627 16.8478 14.9952 17.2569 14.9952 17.6831C14.9952 18.1093 15.1627 18.5185 15.4616 18.8224L21.8213 25.1821L21.8257 25.1864C22.1296 25.4853 22.5387 25.6528 22.9649 25.6528C23.3911 25.6528 23.8003 25.4853 24.1042 25.1864L25.2786 24.0121L24.7483 23.4817Z" fill="black"></path></svg>