<svg xmlns:xlink="http://www.w3.org/1999/xlink" width="614" height="315" viewBox="0 0 614 315" fill="none" xmlns="http://www.w3.org/2000/svg"><title>TITAN</title> <path fill-rule="evenodd" clip-rule="evenodd" d="M613.79 41.12L422.66 163.75L409.23 143.07C408.47 151.21 405.79 160.51 401.1 171.35C392.84 191.61 383.46 205.37 373.23 212.25V315.01H287.74L271.64 290.86L271.66 223.76C271.89 219.91 271.69 216.36 271.08 213.19C271 213.07 270.92 212.96 270.84 212.84L270.72 212.66C270.65 212.56 270.58 212.45 270.5 212.33L270.35 212.1C270.27 212 270.19 211.88 270.12 211.76L269.97 211.53C269.9 211.43 269.82 211.31 269.74 211.2L269.59 210.97C269.52 210.86 269.44 210.74 269.36 210.63L269.21 210.4C269.14 210.29 269.06 210.18 268.98 210.06L268.83 209.83C268.76 209.72 268.68 209.61 268.6 209.49L268.45 209.26C268.38 209.16 268.31 209.04 268.23 208.93L268.07 208.69C268 208.59 267.93 208.47 267.85 208.36L267.7 208.13C267.62 208.02 267.54 207.9 267.46 207.77L267.32 207.56C267.25 207.46 267.17 207.34 267.09 207.22L266.94 206.99C266.86 206.88 266.78 206.76 266.7 206.63L266.56 206.42C266.49 206.32 266.41 206.2 266.33 206.08L266.18 205.86C266.11 205.75 266.02 205.62 265.94 205.5L265.8 205.29C265.73 205.18 265.65 205.06 265.57 204.93L265.43 204.72C265.35 204.61 265.27 204.49 265.19 204.36L265.05 204.15C264.97 204.05 264.89 203.92 264.81 203.8L264.67 203.59C264.59 203.48 264.51 203.35 264.43 203.23L264.29 203.02C264.22 202.91 264.13 202.78 264.05 202.66L263.91 202.45C263.84 202.35 263.76 202.23 263.68 202.11L263.54 201.89C263.46 201.78 263.39 201.67 263.31 201.55L263.16 201.32C263.08 201.21 263 201.09 262.92 200.96L262.78 200.75C262.71 200.65 262.63 200.53 262.55 200.41L262.4 200.18C262.33 200.07 262.25 199.95 262.16 199.83L262.02 199.61C261.95 199.51 261.87 199.39 261.79 199.27L261.64 199.05C261.57 198.94 261.49 198.82 261.41 198.7L261.26 198.48C261.19 198.38 261.11 198.25 261.03 198.13L260.89 197.91C260.81 197.81 260.73 197.69 260.65 197.56L260.51 197.35C260.44 197.24 260.36 197.12 260.27 197L260.13 196.78C260.06 196.67 259.98 196.55 259.9 196.43L259.75 196.21C259.69 196.12 259.63 196.03 259.56 195.93L142.37 254.28L125.97 229.7L129.35 202.55L23.39 250.38L0.0599976 214.7L208.02 74.8L214.19 84.64C215.58 81.34 217.93 77.25 222.45 74.67L228.35 71.31C231.77 69.6 234.97 68.76 238.13 68.76C240 68.76 241.87 69.06 243.7 69.64C243.73 69.65 243.77 69.66 243.81 69.67C243.9 69 244.01 68.34 244.16 67.68C245.38 62.18 248.53 58.04 253.52 55.37L258.78 51.76L259.16 51.57C262.58 49.84 265.79 49.01 268.96 49.01C270.78 49.01 272.61 49.29 274.39 49.84C276.12 50.26 277.74 50.89 279.23 51.73C279.41 50.8 279.66 49.89 279.97 49.02C281.8 43.61 285.11 40.07 290.69 37.58L290.94 37.48L296.35 35.31C301.02 32.63 306.31 32.23 311.66 34.2C312.27 34.41 312.89 34.66 313.49 34.95C313.54 34.84 313.58 34.73 313.63 34.62C315.49 29.24 319.43 25.15 324.7 23.18L330.54 20.99C335.22 18.56 340.69 18.54 346.17 20.99L346.47 21.13C350.23 23.01 352.98 25.44 354.86 28.58L354.96 28.72C355.06 28.86 355.15 29 355.24 29.15L355.34 29.29C355.43 29.43 355.53 29.57 355.62 29.72L355.72 29.86C355.81 30 355.91 30.14 355.99 30.28L356.1 30.43C356.19 30.57 356.29 30.71 356.37 30.85L356.47 31C356.57 31.13 356.66 31.27 356.75 31.42L356.86 31.57C356.95 31.7 357.04 31.84 357.13 31.99L357.23 32.13C357.32 32.27 357.42 32.41 357.51 32.55L357.61 32.7C357.7 32.84 357.8 32.97 357.89 33.12L357.99 33.28C358.09 33.41 358.18 33.54 358.26 33.69L358.37 33.84C358.46 33.97 358.56 34.11 358.64 34.25L358.74 34.4C358.84 34.54 358.93 34.67 359.02 34.82L359.12 34.97C359.22 35.1 359.31 35.24 359.4 35.39L359.5 35.53C359.6 35.67 359.69 35.81 359.78 35.95L359.88 36.1C359.97 36.24 360.07 36.38 360.16 36.52L360.26 36.67C360.35 36.81 360.45 36.94 360.53 37.09L360.63 37.24C360.73 37.37 360.83 37.51 360.91 37.66L361.01 37.8C361.11 37.94 361.2 38.08 361.29 38.22L361.39 38.37C361.49 38.51 361.58 38.65 361.67 38.8L361.77 38.94C361.86 39.08 361.96 39.21 362.05 39.36L362.15 39.5C362.24 39.64 362.34 39.78 362.43 39.93L362.52 40.07C362.62 40.21 362.72 40.35 362.8 40.5L362.91 40.64C363 40.78 363.09 40.92 363.18 41.06L363.28 41.2C363.38 41.34 363.47 41.49 363.56 41.63L363.66 41.77C363.76 41.91 363.85 42.05 363.94 42.2L364.04 42.34C364.13 42.48 364.23 42.62 364.32 42.77L364.42 42.91C364.51 43.05 364.61 43.19 364.7 43.33L364.8 43.48C364.89 43.62 364.99 43.76 365.08 43.9L365.17 44.04C365.27 44.18 365.37 44.32 365.45 44.47L365.55 44.61C365.65 44.75 365.74 44.89 365.83 45.04L365.93 45.18C366.03 45.32 366.12 45.46 366.21 45.6L366.31 45.74C366.4 45.88 366.5 46.03 366.59 46.17L366.68 46.31C366.78 46.45 366.88 46.59 366.97 46.74L367.06 46.88C367.16 47.02 367.26 47.16 367.34 47.31L367.44 47.45C367.54 47.59 367.63 47.73 367.72 47.87L367.82 48.01C367.92 48.15 368.01 48.29 368.1 48.44L368.2 48.58C368.29 48.72 368.39 48.86 368.48 49.01L368.58 49.15C368.67 49.29 368.77 49.43 368.86 49.58L368.96 49.72C369.05 49.86 369.15 50 369.24 50.14L369.33 50.28C369.43 50.42 369.53 50.56 369.61 50.71L369.72 50.86C369.81 50.99 369.9 51.13 369.99 51.28C370.1 51.45 370.21 51.62 370.33 51.81L480.01 0.369995L496.39 24.94L493.22 49.57L591.08 4.99L613.79 41.12ZM320.61 46.38L323.77 55.08C324.03 55.08 324.3 55.08 324.56 55.08C333.26 49.94 341.55 50.33 349.45 56.26L354.99 62.98L349.45 34.53C348.28 31.36 346.3 29.39 343.13 27.81C339.58 26.23 336.41 26.23 333.65 27.81L327.33 30.18C324.16 31.36 321.79 33.74 320.61 37.29C319.42 40.06 319.42 43.22 320.61 46.38ZM287.81 61.01L291.77 69.69C292.16 69.69 292.56 69.69 292.94 69.69C302.03 66.54 311.12 62.58 320.21 57.45C320.48 57.18 320.61 57.05 320.61 57.05L316.26 47.96C314.68 45.19 312.7 42.43 309.15 41.24C305.98 40.06 302.83 40.06 299.67 42.04L293.73 44.41C290.18 45.99 288.2 47.96 287.02 51.52C285.84 54.68 286.23 57.84 287.81 61.01ZM252.64 78.79L261.34 93.81C263.3 87.87 265.29 83.53 268.84 81.56C274.37 77.61 279.9 74.83 285.44 72.46L279.9 62.98C278.32 59.82 275.95 57.84 272.4 57.05C268.84 55.87 265.68 56.65 262.52 58.24L257.38 61.79C254.22 63.38 252.25 65.75 251.46 69.31C250.66 72.86 251.06 76.02 252.64 78.79ZM221.82 98.54L236.44 123.05C238.02 126.2 240.78 128.19 244.34 128.97C247.51 130.16 250.66 129.37 253.43 127.79L259.36 124.23C262.12 122.65 264.1 120.28 265.29 116.73C265.68 114.35 265.68 112.37 265.29 109.61C264.5 109.21 264.1 108.02 263.7 107.24L249.47 82.74C247.51 79.58 244.74 77.61 241.57 76.81C238.02 75.62 234.86 76.41 231.69 77.99L226.16 81.16C223.39 82.74 221.82 85.51 220.63 88.67C219.84 92.22 220.24 95.38 221.82 98.54ZM332.46 120.28C327.72 117.12 326.14 111.59 326.54 104.07C317.05 110.4 306.78 114.35 296.1 115.14C285.84 116.33 277.14 115.14 270.42 112.37C270.42 115.14 270.42 117.12 270.03 119.1C269.24 122.25 263.7 126.6 253.82 131.74C250.66 133.32 247.11 134.11 243.55 132.92C240.39 132.14 237.22 128.97 233.67 124.63L192.57 143.59L199.69 89.46L10.4 217.49L142.39 158.22L134.88 218.68L332.46 120.28ZM379.09 96.97C378.71 96.97 378.71 96.57 378.3 96.57C370.01 90.24 362.89 83.53 356.96 75.62C354.99 73.64 353.41 71.28 352.23 68.91C351.43 67.72 351.04 66.93 350.25 65.75C344.71 56.65 337.21 54.29 327.33 59.82C326.54 60.21 326.54 60.21 326.14 60.61C324.95 61.01 323.77 61.79 323.38 62.19C322.98 62.19 322.98 62.19 322.58 62.19C313.89 67.72 304.8 71.67 295.72 74.04C294.92 74.83 294.13 74.83 293.73 74.83C291.77 75.62 290.18 76.41 288.2 77.21C282.28 79.58 276.75 82.74 271.21 86.69C267.25 89.46 266.08 93.81 268.05 100.12C268.84 102.5 270.42 104.47 272 106.45C273.98 108.02 275.95 109.21 278.72 110C285.04 111.98 294.13 111.19 305.98 108.42C315.47 106.45 324.16 99.34 332.86 88.27C327.33 99.72 328.91 109.61 337.21 118.3C339.58 121.07 343.13 123.44 347.09 125.8C342.34 126.2 339.18 126.2 336.81 127C322.19 128.97 316.66 136.09 319.42 147.54C320.61 151.1 321.79 154.66 322.58 158.62C325.75 168.49 325.75 178.37 323.38 188.65C321.79 194.96 319.42 200.1 316.66 205.64C320.61 192.99 321.79 180.74 319.82 168.88C318.25 158.62 315.87 151.5 312.7 146.37C309.54 140.83 304.8 140.04 299.67 142.8L253.82 167.7C256.59 178.76 261.73 187.46 269.24 194.18C276.35 201.29 279.9 211.16 279.12 224.21V284.27H350.25V184.69C360.13 179.95 370.01 166.52 378.71 145.18C388.97 121.46 388.97 105.66 379.09 96.97ZM586.17 15.56L464.45 70.88L471.96 12.4L357.36 66.14C358.94 68.91 360.52 70.88 362.1 72.86C368.03 80.76 375.14 87.48 383.44 93.81C383.84 93.81 383.84 94.19 384.23 94.59L422.17 75.62L415.45 126.2L586.17 15.56Z" fill="black"></path></svg>