<svg xmlns:xlink="http://www.w3.org/1999/xlink" width="26" height="26" viewBox="0 0 26 26" fill="none" xmlns="http://www.w3.org/2000/svg"><path fill-rule="evenodd" clip-rule="evenodd" d="M13.003 1.65283C10.3022 1.65283 8.18088 3.72084 8.18088 6.19012C8.18088 8.65941 10.3022 10.7274 13.003 10.7274C15.7038 10.7274 17.8251 8.65941 17.8251 6.19012C17.8251 3.72084 15.7038 1.65283 13.003 1.65283ZM6.68088 6.19012C6.68088 2.81923 9.54896 0.152832 13.003 0.152832C16.4571 0.152832 19.3251 2.81923 19.3251 6.19012C19.3251 9.56102 16.4571 12.2274 13.003 12.2274C9.54896 12.2274 6.68088 9.56102 6.68088 6.19012Z" fill="black"></path> <path d="M13.0016 14.9532C7.24634 14.9532 2.51873 18.252 2.12909 22.4146C2.62445 22.5944 3.5884 22.8816 5.15034 23.1675C6.81084 23.4714 9.5165 23.8337 12.9765 23.8337L13.0006 23.8337C13.001 23.8337 13.0013 23.8337 13.0017 23.8337C13.0157 23.8337 13.0297 23.834 13.0436 23.8345C13.4955 23.8509 13.9501 23.8592 14.3947 23.8592C17.645 23.8592 20.119 23.4141 21.6222 23.0408C22.6425 22.7874 23.3995 22.524 23.8665 22.3384C23.4266 18.2118 18.7217 14.9532 13.0016 14.9532ZM13.0016 13.9095C19.6281 13.9095 25 17.9667 25 22.9714C24.9756 23.034 21.2291 24.9029 14.3947 24.9029C13.9433 24.9029 13.4797 24.8947 13.0016 24.8774C12.9936 24.8774 12.9845 24.8774 12.9765 24.8774C5.6773 24.8774 0.857228 23.2988 1.00323 22.9714C1.00323 17.9667 6.37509 13.9095 13.0016 13.9095Z" fill="black"></path> <path fill-rule="evenodd" clip-rule="evenodd" d="M1.20337 22.9285C1.21943 22.94 1.24256 22.9549 1.27467 22.973C1.39208 23.0392 1.58448 23.1233 1.85305 23.2188C2.38736 23.4089 3.19494 23.6347 4.23855 23.8513C6.32463 24.2841 9.34083 24.6773 12.9765 24.6773L13.0089 24.6773C13.4846 24.6946 13.9457 24.7028 14.3947 24.7028C17.7936 24.7028 20.4216 24.2381 22.1999 23.7672C23.0892 23.5317 23.7657 23.2948 24.2196 23.1137C24.4467 23.0232 24.6174 22.9469 24.7306 22.8922C24.7568 22.8795 24.7796 22.8682 24.7991 22.8582C24.7593 20.4767 23.4654 18.3094 21.3652 16.7232C19.2318 15.1119 16.2755 14.1095 13.0016 14.1095C9.72778 14.1095 6.77146 15.1119 4.63802 16.7232C2.51723 18.3249 1.21857 20.5194 1.20337 22.9285ZM24.8754 22.8162C24.8755 22.8162 24.8754 22.8163 24.8754 22.8162V22.8162ZM4.39694 16.404C6.60607 14.7356 9.64894 13.7095 13.0016 13.7095C16.3543 13.7095 19.3972 14.7356 21.6063 16.404C23.8155 18.0725 25.2 20.3925 25.2 22.9713V23.0088L25.1864 23.0438C25.1728 23.0788 25.1526 23.1012 25.1467 23.1077C25.1379 23.1173 25.1298 23.1244 25.1249 23.1286C25.1148 23.1371 25.105 23.1439 25.0982 23.1484C25.084 23.158 25.0673 23.1679 25.05 23.1776C25.0147 23.1975 24.9659 23.2227 24.9047 23.2523C24.7816 23.3118 24.6022 23.3918 24.3678 23.4853C23.8988 23.6723 23.207 23.9143 22.3023 24.1539C20.4927 24.6331 17.8302 25.1028 14.3947 25.1028C13.9421 25.1028 13.4773 25.0947 12.998 25.0773L12.9765 25.0773C9.31296 25.0773 6.26954 24.6812 4.15728 24.2429C3.10174 24.0239 2.27547 23.7937 1.71898 23.5957C1.44215 23.4972 1.22491 23.4042 1.07815 23.3214C1.00664 23.2811 0.939573 23.2364 0.890862 23.1869C0.861022 23.1566 0.780091 23.0643 0.803285 22.9441C0.812974 20.3762 2.19548 18.0667 4.39694 16.404ZM5.43969 16.9582C7.42599 15.5882 10.0871 14.7532 13.0016 14.7532C15.8983 14.7532 18.5447 15.578 20.527 16.9331C22.5086 18.2878 23.8377 20.1815 24.0654 22.3171L24.0815 22.4681L23.9404 22.5242C23.4651 22.713 22.6996 22.9792 21.6704 23.2349C20.1536 23.6116 17.6632 24.0591 14.3947 24.0591C13.9476 24.0591 13.4907 24.0507 13.0364 24.0343C13.0248 24.0338 13.0132 24.0336 13.0017 24.0336L12.9765 24.0336C9.50272 24.0336 6.78485 23.6699 5.11434 23.3641C3.54401 23.0767 2.56892 22.7869 2.06088 22.6026L1.91557 22.5498L1.92997 22.3959C2.13163 20.2415 3.45404 18.3278 5.43969 16.9582ZM2.34484 22.2784C2.86306 22.4548 3.77777 22.7128 5.18636 22.9707C6.83683 23.2728 9.53032 23.6336 12.9764 23.6336C12.9764 23.6336 12.9764 23.6336 12.9764 23.6336L13.0006 23.6336L13.0017 23.6336C13.0182 23.6336 13.0345 23.6339 13.0508 23.6345C13.5003 23.6508 13.9525 23.6591 14.3947 23.6591C17.6267 23.6591 20.0845 23.2166 21.574 22.8466C22.4864 22.62 23.1847 22.3858 23.6495 22.2082C23.3918 20.2774 22.1636 18.5365 20.3013 17.2634C18.3911 15.9576 15.825 15.1532 13.0016 15.1532C10.1609 15.1532 7.58054 15.9675 5.6668 17.2875C3.80174 18.5739 2.58036 20.3317 2.34484 22.2784Z" fill="black"></path></svg>